<?xml version="1.0" encoding="UTF-8" standalone="no"?>
<!-- Created with Inkscape (http://www.inkscape.org/) -->

<svg
   xmlns:dc="http://purl.org/dc/elements/1.1/"
   xmlns:cc="http://creativecommons.org/ns#"
   xmlns:rdf="http://www.w3.org/1999/02/22-rdf-syntax-ns#"
   xmlns:svg="http://www.w3.org/2000/svg"
   xmlns="http://www.w3.org/2000/svg"
   xmlns:sodipodi="http://sodipodi.sourceforge.net/DTD/sodipodi-0.dtd"
   xmlns:inkscape="http://www.inkscape.org/namespaces/inkscape"
   width="210mm"
   height="297mm"
   viewBox="0 0 210 297"
   version="1.1"
   id="svg8"
   inkscape:version="0.92.3 (2405546, 2018-03-11)"
   sodipodi:docname="logo.svg">
  <defs
     id="defs2" />
  <sodipodi:namedview
     id="base"
     pagecolor="#ffffff"
     bordercolor="#666666"
     borderopacity="1.0"
     inkscape:pageopacity="0.0"
     inkscape:pageshadow="2"
     inkscape:zoom="0.24748737"
     inkscape:cx="878.87543"
     inkscape:cy="1799.7375"
     inkscape:document-units="mm"
     inkscape:current-layer="g4599"
     showgrid="false"
     inkscape:window-width="1600"
     inkscape:window-height="837"
     inkscape:window-x="-8"
     inkscape:window-y="-8"
     inkscape:window-maximized="1" />
  <metadata
     id="metadata5">
    <rdf:RDF>
      <cc:Work
         rdf:about="">
        <dc:format>image/svg+xml</dc:format>
        <dc:type
           rdf:resource="http://purl.org/dc/dcmitype/StillImage" />
        <dc:title></dc:title>
      </cc:Work>
    </rdf:RDF>
  </metadata>
  <g
     inkscape:label="Layer 1"
     inkscape:groupmode="layer"
     id="layer1">
    <g
       aria-label="FORG.JS"
       transform="matrix(3.8066244,0,0,3.8066244,2112.8737,-895.19058)"
       style="font-style:normal;font-variant:normal;font-weight:normal;font-stretch:normal;font-size:40px;line-height:1.25;font-family:'Peace Sans';-inkscape-font-specification:'Peace Sans';letter-spacing:0px;word-spacing:0px;fill:#000000;fill-opacity:1;stroke:none"
       id="flowRoot815">
      <g
         id="g4599"
         transform="translate(23.036283,-16.482857)">
        <g
           transform="translate(-3.3701611,-49.709876)"
           style="fill:#091919;fill-opacity:1"
           id="g4584"
           inkscape:export-xdpi="96"
           inkscape:export-ydpi="96">
          <path
             style="fill:#091919;fill-opacity:1"
             d="m -592.89641,248.63323 v 28 h 10.4 v -8 h 8.4 v -8 h -8.4 v -3.2 h 10.4 v -8.8 z"
             id="path825"
             inkscape:connector-curvature="0" />
          <path
             style="fill:#091919;fill-opacity:1;stroke-width:1"
             d="m -554.89322,248.03328 c -9.2,0 -15.60003,6.39993 -15.60003,14.59993 0,8.2 6.40003,14.60007 15.60003,14.60007 9.2,0 15.59989,-6.40007 15.59989,-14.60007 0,-8.2 -6.39989,-14.59993 -15.59989,-14.59993 z"
             id="path827"
             inkscape:connector-curvature="0" />
          <path
             style="fill:#091919;fill-opacity:1"
             d="m -507.71828,276.63323 -6.8,-10.8 c 0,0 3.6,-2 3.6,-7.8 0,-5.8 -4,-9.8 -12.8,-9.8 -6,0 -11.6,0.4 -11.6,0.4 v 28 h 10.4 v -9.2 h 0.4 l 4.8,9.2 z m -17.2,-16.4 v -4.4 h 1.2 c 1.4,0 2.4,1 2.4,2.2 0,1.2 -1,2.2 -2.4,2.2 z"
             id="path829"
             inkscape:connector-curvature="0" />
          <path
             style="fill:#091919;fill-opacity:1;stroke-width:1"
             d="m -492.09955,248.03328 c -8.4,0 -14.80003,6.39993 -14.80003,14.59993 0,8.2 6.40003,14.60007 14.80003,14.60007 8,0 11.60004,-4.79999 11.60004,-4.79999 v -9.74347 c -0.20771,-0.0232 -0.41647,-0.0422 -0.62596,-0.0566 h -2.07133 c -3.50733,0.24768 -6.60409,1.76704 -6.31148,4.61903 0.25398,0.0138 0.49966,0.11295 0.70769,0.28481 0.60213,0.4983 0.74792,1.47413 0.3254,2.1798 -0.42252,0.70575 -1.25347,0.87426 -1.85603,0.37618 -0.60253,-0.49834 -0.74824,-1.47456 -0.3254,-2.18035 0.0192,-0.0305 0.0394,-0.0608 0.0597,-0.0893 -0.39971,-1.24257 -1.89264,-3.94844 -5.71592,-2.01717 0,0 -0.12751,0.193 -0.15354,0.23295 -0.42258,0.63465 -1.25351,0.78602 -1.85602,0.33803 -0.60214,-0.44807 -0.7481,-1.32569 -0.32554,-1.96029 0.42259,-0.63465 1.25356,-0.786 1.85603,-0.33802 0.17202,0.12868 0.31252,0.29818 0.41092,0.49482 1.36071,-1.05869 4.09666,-1.598 0.27138,-4.61726 v 0 c -0.30303,0.29151 -0.58058,0.26599 -0.98843,0.26635 -0.79362,0 -1.37169,-0.61816 -1.29129,-1.38062 0.0804,-0.76242 0.78889,-1.38044 1.58248,-1.38048 0.79358,-4e-5 1.3718,0.61802 1.2913,1.38048 0.001,0.16546 0.011,0.20689 0.011,0.20689 0.63728,0.52625 4.16013,1.07048 3.24425,-2.74956 -0.008,1.3e-4 -0.0164,4.1e-4 -0.0244,6.9e-4 -0.79361,4e-5 -1.37155,-0.61802 -1.29115,-1.38048 0.0804,-0.76242 0.78878,-1.38058 1.58235,-1.38062 0.7936,-4e-5 1.37179,0.61816 1.29129,1.38062 -0.0131,0.52318 -0.46618,1.00376 -0.46618,1.00376 1.82156,2.39498 3.75203,3.42165 5.556,3.97176 0.69458,0.20489 1.29465,0.27476 1.8255,0.24574 l 2.88734,-7.70773 c 0,0 -3.59998,-4.39992 -11.19998,-4.39992 z"
             id="path831"
             inkscape:connector-curvature="0"
             sodipodi:nodetypes="cssccccccccccccccccccccscccccscccccsc" />
        </g>
        <g
           transform="translate(-3.3701611,-49.709876)"
           style="fill:#fedc56;fill-opacity:1"
           id="g4588"
           inkscape:export-xdpi="96"
           inkscape:export-ydpi="96">
          <path
             style="fill:#fedc56;fill-opacity:1"
             d="m -458.52766,264.23323 c 0,2.2 -1.4,3.6 -3.2,3.6 -1.6,0 -2.8,-0.8 -2.8,-0.8 l -2.8,8.4 c 0,0 2.8,2.4 8,2.4 6,0 11.2,-5.2 11.2,-13.6 v -15.6 h -10.4 z"
             id="path835"
             inkscape:connector-curvature="0" />
          <path
             style="fill:#fedc56;fill-opacity:1"
             d="m -434.76516,269.03323 c -4,0 -6.8,-2.6 -6.8,-2.6 l -3.8,6 c 0,0 3.6,4.8 12.4,4.8 7,0 11.4,-4.4 11.4,-9 0,-8.8 -10.8,-8.8 -10.8,-10.8 0,-0.6 0.6,-1.2 1.6,-1.2 2.8,0 5.2,2.2 5.2,2.2 l 3.8,-6 c 0,0 -3.6,-4.4 -10.8,-4.4 -7,0 -11.4,4.4 -11.4,9 0,8.8 10.8,8.8 10.8,10.8 0,0.6 -0.6,1.2 -1.6,1.2 z"
             id="path837"
             inkscape:connector-curvature="0" />
        </g>
        <circle
           r="3.9717731"
           cy="222.92337"
           cx="-476.46033"
           id="path845"
           style="fill:#78ac6e;fill-opacity:1;stroke:none;stroke-width:0.06292925;stroke-miterlimit:4;stroke-dasharray:none;stroke-opacity:1"
           inkscape:export-xdpi="96"
           inkscape:export-ydpi="96" />
      </g>
    </g>
  </g>
</svg>
